<svg version="1.1" id="Layer_1" xmlns="http://www.w3.org/2000/svg" xmlns:xlink="http://www.w3.org/1999/xlink" x="0px" y="0px"
	 width="100%" viewBox="0 0 500 500" enable-background="new 0 0 500 500" xml:space="preserve">
<path fill="#FFFFFF" opacity="1.000000" stroke="none" 
	d="
M322.000000,501.000000 
	C214.666687,501.000000 107.833382,501.000000 1.000057,501.000000 
	C1.000038,334.333405 1.000038,167.666794 1.000019,1.000147 
	C167.666565,1.000098 334.333130,1.000098 500.999756,1.000049 
	C500.999847,167.666519 500.999847,334.333038 500.999939,500.999786 
	C441.500000,501.000000 382.000000,501.000000 322.000000,501.000000 
M407.000000,283.500000 
	C406.999695,227.007492 407.021881,170.514954 406.982147,114.022469 
	C406.973022,101.041512 401.204651,95.025597 388.680756,95.020470 
	C296.859619,94.982864 205.038483,94.979141 113.217392,95.026314 
	C101.072159,95.032555 95.044220,101.030151 95.038574,113.166046 
	C94.995758,205.153717 95.007523,297.141418 95.062363,389.129120 
	C95.069588,401.257233 101.094162,406.996216 113.348984,406.997681 
	C161.342606,407.003357 209.336212,407.000000 257.329834,407.000000 
	C301.490631,407.000000 345.651550,406.952698 389.812103,407.054047 
	C395.989990,407.068237 401.376160,405.266541 404.212494,399.903076 
	C406.125977,396.284668 406.861145,391.664825 406.885742,387.485626 
	C407.088013,353.158051 406.999969,318.828766 407.000000,283.500000 
z"/>
<path fill="#0000FF" opacity="1.000000" stroke="none" 
	d="
M407.000000,284.000000 
	C406.999969,318.828766 407.088013,353.158051 406.885742,387.485626 
	C406.861145,391.664825 406.125977,396.284668 404.212494,399.903076 
	C401.376160,405.266541 395.989990,407.068237 389.812103,407.054047 
	C345.651550,406.952698 301.490631,407.000000 257.329834,407.000000 
	C209.336212,407.000000 161.342606,407.003357 113.348984,406.997681 
	C101.094162,406.996216 95.069588,401.257233 95.062363,389.129120 
	C95.007523,297.141418 94.995758,205.153717 95.038574,113.166046 
	C95.044220,101.030151 101.072159,95.032555 113.217392,95.026314 
	C205.038483,94.979141 296.859619,94.982864 388.680756,95.020470 
	C401.204651,95.025597 406.973022,101.041512 406.982147,114.022469 
	C407.021881,170.514954 406.999695,227.007492 407.000000,284.000000 
z"/>
</svg>