<svg width="155" height="91" viewBox="0 0 155 91" fill="none" xmlns="http://www.w3.org/2000/svg">
<path d="M12.647 88.2441L1 68.656L40.7056 37.9503L82.5289 62.3031L111.646 33.715L95.2347 27.3621L93.117 7.24463L137.058 25.2445L141.293 75.5383L126.47 68.656L124.352 53.3032L85.1759 89.8323L40.7056 65.4795L12.647 88.2441Z" fill="#16358A" stroke="black"/>
<path d="M49.7042 31.0679L40.1748 37.9502L82.5275 62.8324L90.998 53.303L49.7042 31.0679Z" fill="white" stroke="black"/>
<path d="M104.328 0L92.7266 6.88861L136.596 25.0165L148.923 18.1279L104.328 0Z" fill="#D9D9D9"/>
<path d="M154 70.2443L148.706 18.3623L137.059 24.7152L141.823 76.0678L154 70.2443Z" fill="black" stroke="black"/>
</svg>
