<svg width="214" height="232" viewBox="0 0 214 232" fill="none" xmlns="http://www.w3.org/2000/svg">
<path d="M54.9936 36.0945C69.7973 26.476 88.9961 26.5332 108.147 34.5575C127.294 42.5801 146.312 58.5425 160.623 80.5684C174.934 102.594 181.792 126.458 181.343 147.213C180.893 167.972 173.145 185.538 158.341 195.156C143.537 204.775 124.338 204.718 105.187 196.693C86.0406 188.671 67.0222 172.708 52.7113 150.682C38.4004 128.656 31.5426 104.793 31.9918 84.0381C32.4412 63.2787 40.1899 45.713 54.9936 36.0945Z" fill="white" stroke="#606060" stroke-width="1.5"/>
<g filter="url(#filter0_i_1104_122)">
<ellipse cx="102.905" cy="117.431" rx="60.841" ry="94.7763" transform="rotate(-33.0131 102.905 117.431)" fill="#44E982"/>
</g>
<path d="M51.6765 38.5855C65.4776 29.6185 83.7221 30.1586 102.158 38.4783C120.586 46.7943 139.101 62.8476 153.294 84.6917C167.487 106.536 174.631 129.976 174.742 150.193C174.854 170.419 167.935 187.309 154.133 196.276C140.332 205.243 122.087 204.703 103.651 196.383C85.2237 188.067 66.7086 172.014 52.5159 150.17C38.3232 128.326 31.1779 104.885 31.0668 84.6686C30.9557 64.4425 37.8754 47.5526 51.6765 38.5855Z" stroke="#606060" stroke-width="1.5"/>
<path d="M84.0662 82.9207C85.7991 65.6677 96.7987 72.4912 104.462 82.6057C108.56 88.0154 109.287 95.0651 108.2 101.764L103.953 127.95C102.807 135.014 97.5085 143.148 93.1883 137.443C91.8092 135.622 90.5426 132.166 90.2159 129.906L84.3004 88.9662C84.0121 86.9716 83.8648 84.9259 84.0662 82.9207Z" fill="#3A3A3A"/>
<ellipse cx="6.44923" cy="10.3362" rx="6.44923" ry="10.3362" transform="matrix(-0.918227 0.396055 0.396055 0.918227 98.3506 146.738)" fill="#3A3A3A"/>
<defs>
<filter id="filter0_i_1104_122" x="30.3154" y="31.2983" width="145.179" height="173.265" filterUnits="userSpaceOnUse" color-interpolation-filters="sRGB">
<feFlood flood-opacity="0" result="BackgroundImageFix"/>
<feBlend mode="normal" in="SourceGraphic" in2="BackgroundImageFix" result="shape"/>
<feColorMatrix in="SourceAlpha" type="matrix" values="0 0 0 0 0 0 0 0 0 0 0 0 0 0 0 0 0 0 127 0" result="hardAlpha"/>
<feOffset dy="1"/>
<feGaussianBlur stdDeviation="2"/>
<feComposite in2="hardAlpha" operator="arithmetic" k2="-1" k3="1"/>
<feColorMatrix type="matrix" values="0 0 0 0 0.600962 0 0 0 0 1 0 0 0 0 0.600962 0 0 0 0.25 0"/>
<feBlend mode="normal" in2="shape" result="effect1_innerShadow_1104_122"/>
</filter>
</defs>
</svg>
