<svg width="1390" height="1390" viewBox="0 0 1390 1390" fill="none" xmlns="http://www.w3.org/2000/svg">
<path d="M694.999 1375.52C1070.84 1375.52 1375.52 1070.84 1375.52 695C1375.52 319.158 1070.84 14.479 694.999 14.479C319.158 14.479 14.4785 319.158 14.4785 695C14.4785 1070.84 319.158 1375.52 694.999 1375.52Z" fill="#37423F"/>
<path d="M817.506 199.491V287.109C992.316 339.849 1120.34 502.323 1120.34 694.996C1120.34 887.669 992.316 1050.14 817.506 1102.88V1190.5C1040.38 1136.06 1205.4 934.879 1205.4 694.996C1205.4 455.112 1040.38 253.933 817.506 199.491Z" fill="#78E76E"/>
<path d="M269.674 694.996C269.674 502.323 397.698 339.849 572.506 287.109V199.491C349.636 253.933 184.609 455.112 184.609 694.996C184.609 934.879 349.636 1136.06 572.506 1190.5V1102.88C397.698 1050.57 269.674 887.669 269.674 694.996Z" fill="#78E76E"/>
<path d="M859.258 644.196H533.859L696.781 993.936L859.258 644.196Z" fill="#78E76E"/>
<path d="M895.141 622.42C933.21 601.378 1008.39 559.649 1011.6 557.191C1011.67 557.112 1011.7 557.075 1011.71 557.083C1011.71 557.096 1011.68 557.132 1011.6 557.191C1006.84 562.925 842.187 793.323 759.332 909.384L895.141 622.42Z" fill="#78E76E"/>
<path d="M495.413 622.42C457.344 601.378 382.163 559.649 378.953 557.191C378.887 557.112 378.852 557.075 378.848 557.083C378.841 557.096 378.876 557.132 378.953 557.191C383.718 562.925 548.367 793.323 631.223 909.384L495.413 622.42Z" fill="#78E76E"/>
<path d="M949.322 455.875L838.76 505.739L880.276 614.731L1011.71 538.392L949.322 455.875Z" fill="#78E76E"/>
<path d="M441.233 455.875L551.795 505.739L510.279 614.731L378.847 538.392L441.233 455.875Z" fill="#78E76E"/>
<path d="M815.627 509.681H573.994L532.578 619.855H859.258L815.627 509.681Z" fill="#78E76E"/>
<path d="M465.961 441.232L567.511 396.945H802.247L924.593 441.232L819.725 486.622H567.511L465.961 441.232Z" fill="#78E76E"/>
</svg>
