<svg width="1390" height="1390" viewBox="0 0 1390 1390" fill="none" xmlns="http://www.w3.org/2000/svg">
<path d="M695 1375.52C1070.84 1375.52 1375.52 1070.84 1375.52 695C1375.52 319.159 1070.84 14.4792 695 14.4792C319.159 14.4792 14.4795 319.159 14.4795 695C14.4795 1070.84 319.159 1375.52 695 1375.52Z" fill="#78E76E"/>
<path d="M817.507 199.491V287.109C992.317 339.849 1120.34 502.323 1120.34 694.996C1120.34 887.668 992.317 1050.14 817.507 1102.88V1190.5C1040.38 1136.06 1205.4 934.879 1205.4 694.996C1205.4 455.112 1040.38 253.933 817.507 199.491Z" fill="white"/>
<path d="M269.674 694.996C269.674 502.323 397.698 339.849 572.506 287.109V199.491C349.636 253.933 184.609 455.112 184.609 694.996C184.609 934.879 349.636 1136.06 572.506 1190.5V1102.88C397.698 1050.57 269.674 887.668 269.674 694.996Z" fill="white"/>
<path d="M859.258 644.196H533.859L696.781 993.936L859.258 644.196Z" fill="white"/>
<path d="M895.141 622.419C933.21 601.377 1008.39 559.649 1011.6 557.191C1011.67 557.111 1011.7 557.075 1011.71 557.083C1011.71 557.096 1011.68 557.132 1011.6 557.191C1006.84 562.925 842.187 793.323 759.332 909.383L895.141 622.419Z" fill="white"/>
<path d="M495.413 622.419C457.344 601.377 382.163 559.649 378.953 557.191C378.887 557.111 378.852 557.075 378.848 557.083C378.841 557.096 378.876 557.132 378.953 557.191C383.718 562.925 548.367 793.323 631.223 909.383L495.413 622.419Z" fill="white"/>
<path d="M949.323 455.875L838.761 505.738L880.277 614.731L1011.71 538.392L949.323 455.875Z" fill="white"/>
<path d="M441.233 455.875L551.795 505.738L510.279 614.731L378.847 538.392L441.233 455.875Z" fill="white"/>
<path d="M815.628 509.681H573.995L532.579 619.855H859.259L815.628 509.681Z" fill="white"/>
<path d="M465.962 441.232L567.512 396.945H802.248L924.594 441.232L819.726 486.621H567.512L465.962 441.232Z" fill="white"/>
</svg>
